<?xml version="1.0" encoding="utf-8"?>
<!-- Generator: Adobe Illustrator 24.0.1, SVG Export Plug-In . SVG Version: 6.00 Build 0)  -->
<svg version="1.1" id="Capa_1" xmlns="http://www.w3.org/2000/svg" xmlns:xlink="http://www.w3.org/1999/xlink" x="0px" y="0px"
	 viewBox="0 0 46.2 40.7" style="enable-background:new 0 0 46.2 40.7;" xml:space="preserve">
<style type="text/css">
	.st0{opacity:0.9;}
	.st1{fill:#FFFFFF;}
</style>
<g class="st0">
	<g>
		<path class="st1" d="M12.8,38.7c-1.8,0-3.4-0.4-4.8-1.2c-2.4-1.5-4.2-4-5.2-7.6c-1-3.6-1.1-7.3-0.1-11.2C3.9,14.5,6,10.8,9.2,7.9
			C12.4,5,16,3.1,20.1,2.3V6c-2.9,1.1-5.3,2.8-7.5,5.2c-2.2,2.5-3.8,5.1-4.6,7.9c-0.3,1.1-0.5,2.4-0.5,3.8c0,1.4,0.4,1.7,1.3,0.9
			c1.2-0.7,2.5-1.1,3.9-1.1c2.2-0.1,4,0.7,5.6,2.2c1.6,1.6,2.4,3.5,2.4,5.6c0,2.3-0.7,4.2-2.2,5.7C17,37.9,15.1,38.7,12.8,38.7z
			 M35.7,38.7c-1.8,0-3.4-0.4-4.8-1.2c-2.4-1.5-4.2-4-5.2-7.6c-1-3.6-1.1-7.3-0.1-11.2c1.1-4.3,3.3-7.9,6.5-10.9
			C35.2,5,38.9,3.1,43,2.3V6c-2.9,1.1-5.3,2.8-7.5,5.2c-2.2,2.5-3.8,5.1-4.6,7.9c-0.3,1.1-0.5,2.4-0.5,3.8c0,1.4,0.4,1.7,1.3,0.9
			c1.2-0.7,2.5-1.1,3.9-1.1c2.2-0.1,4,0.7,5.6,2.2c1.6,1.6,2.4,3.5,2.4,5.6c0,2.3-0.8,4.2-2.2,5.7C39.8,37.9,37.9,38.7,35.7,38.7z"
			/>
	</g>
</g>
</svg>
