<?xml version="1.0" encoding="utf-8"?>
<!-- Generator: Adobe Illustrator 24.0.1, SVG Export Plug-In . SVG Version: 6.00 Build 0)  -->
<svg version="1.1" id="Capa_1" xmlns="http://www.w3.org/2000/svg" xmlns:xlink="http://www.w3.org/1999/xlink" x="0px" y="0px"
	 viewBox="0 0 103.8 98.9" style="enable-background:new 0 0 103.8 98.9;" xml:space="preserve">
<style type="text/css">
	.st0{fill:none;stroke:#81948B;stroke-width:3;stroke-miterlimit:10;}
</style>
<g>
	<g>
		<g>
			<path class="st0" d="M58.8,33.4c-0.8,0-1.5-0.7-2-1.1c-0.1-0.1-0.2-0.2-0.3-0.2C54.1,30,52,27.6,50.3,25
				c-0.4-0.6-0.8-1.3-1.2-1.9c-2.5-4.4-4-9.3-4.5-14.5c-0.2-1.8-0.2-3.8,0.9-5.4c0.4-0.5,1.2-1.5,2.6-1.7c1.4-0.2,2.9,0.4,4.3,1.9
				c3,3.1,4.3,6.9,5.1,10.8c1-3.3,2.4-6.2,4.1-8.7c0.6-0.9,1.3-1.8,2.4-2.5c1.2-0.8,2.7-1.2,4-1c1.6,0.2,3.5,1.4,3.9,3.6
				c0.3,1.6-0.3,3.2-0.9,4.5C70,12,69,13.9,68,15.7c-1,1.9-2,3.8-2.8,5.7c-0.5,1.2-1,2.4-1.4,3.6c-0.2,0.6-0.5,1.2-0.7,1.8
				c-0.6,1.4-1.2,3.1-2.1,4.6c0,0.1-0.1,0.2-0.1,0.3c-0.3,0.6-0.8,1.6-1.9,1.7C58.9,33.4,58.9,33.4,58.8,33.4z M58.8,32.3L58.8,32.3
				L58.8,32.3z"/>
		</g>
		<ellipse class="st0" cx="73.7" cy="68.1" rx="28.6" ry="29.3"/>
		<ellipse class="st0" cx="32.6" cy="65.5" rx="31.1" ry="31.9"/>
	</g>
</g>
</svg>
