<?xml version="1.0" encoding="utf-8"?>
<!-- Generator: Adobe Illustrator 24.0.1, SVG Export Plug-In . SVG Version: 6.00 Build 0)  -->
<svg version="1.1" id="Capa_1" xmlns="http://www.w3.org/2000/svg" xmlns:xlink="http://www.w3.org/1999/xlink" x="0px" y="0px"
	 viewBox="0 0 75.3 89.3" style="enable-background:new 0 0 75.3 89.3;" xml:space="preserve">
<style type="text/css">
	.st0{fill:none;stroke:#81948B;stroke-width:3;stroke-miterlimit:10;}
</style>
<g>
	<g>
		<path class="st0" d="M65.8,40.4v39.7c0,4.3-3.4,7.7-7.7,7.7H19c-4.3,0-7.7-3.4-7.7-7.7V40.4H65.8z"/>
		<line class="st0" x1="31.4" y1="87.8" x2="31.4" y2="40.3"/>
		<line class="st0" x1="44.7" y1="40.5" x2="44.7" y2="87.8"/>
	</g>
	<g>
		<line class="st0" x1="44.7" y1="40.3" x2="44.7" y2="22.7"/>
		<path class="st0" d="M68,40.4H7.3c-3.2,0-5.8-2.6-5.8-5.8v-6.4c0-3.2,2.6-5.8,5.8-5.8H68c3.2,0,5.8,2.6,5.8,5.8v6.4
			C73.8,37.8,71.2,40.4,68,40.4z"/>
		<path class="st0" d="M17.3,1.5C12,1.5,8.7,3.6,8.7,7c0,6.1,10,14.5,28.8,15.1C36.3,16.5,31.6,1.5,17.3,1.5z"/>
		<path class="st0" d="M38.1,22.1c18.8-0.6,28.8-9,28.8-15.1c0-3.4-3.3-5.5-8.6-5.5C44,1.5,39.3,16.5,38.1,22.1z"/>
		<line class="st0" x1="31.4" y1="40.3" x2="31.4" y2="22.7"/>
	</g>
</g>
</svg>
