<?xml version="1.0" encoding="utf-8"?>
<!-- Generator: Adobe Illustrator 24.0.1, SVG Export Plug-In . SVG Version: 6.00 Build 0)  -->
<svg version="1.1" id="Capa_1" xmlns="http://www.w3.org/2000/svg" xmlns:xlink="http://www.w3.org/1999/xlink" x="0px" y="0px"
	 viewBox="0 0 102.5 108.6" style="enable-background:new 0 0 102.5 108.6;" xml:space="preserve">
<style type="text/css">
	.st0{fill:none;stroke:#81948B;stroke-width:3;stroke-miterlimit:10;}
</style>
<g>
	<path class="st0" d="M99.2,58.1c-0.5-0.7-1.3-1.1-2.1-1.1l-36.4-3.1c-1.5-0.1-2.9,1-3.2,2.5c-0.2,1.1-0.4,2.2-0.5,3.2
		c-0.6,3.5-4.6,27.3-4.7,27.8c-0.1,0.9-0.6,0.6-1.4,0.5c-0.6-0.1-1.1-0.1-1.7-0.1c-1.1,0-2.3,0.2-3.4,0.4c-6.3,1.6-10.4,7-9.2,12.1
		c0.6,2.5,2.5,4.6,5.1,5.8c1.6,0.7,3.3,1,5.1,1c1.2,0,2.3-0.1,3.5-0.4c2.6-0.7,5.1-2,6.9-4.1c1.8-2,2.3-4.3,2.7-6.9
		c0.2-1,4.7-27.9,4.8-28.3c0.1-0.7,0.5-0.6,1.1-0.5c0.8,0.1,22.3,1.9,22.9,2c0.2,0,0.4,0.1,0.4,0.3c-0.2,1.2-3,17.9-3.1,18.1
		c-0.2,0.7-1,0.3-1.5,0.2c-0.5-0.1-1.1-0.1-1.6-0.1c-1.1,0-2.2,0.2-3.3,0.4c-3,0.7-5.6,2.4-7.3,4.6c-1.8,2.3-2.5,5-1.8,7.5
		c1,4.1,5.3,6.8,10.3,6.8c1.1,0,2.3-0.1,3.5-0.4c4.3-1.1,7.8-4,9-7.6c0.6-1.7,6.2-36.1,6.4-37.2c0.1-0.3,0.1-0.7,0.2-1
		C100,59.6,99.7,58.7,99.2,58.1L99.2,58.1z"/>
	<path class="st0" d="M35.4,76.2c-4.7-1.8-6.8-6.3-7.6-8.9c-0.3-0.8-1-1.4-1.9-1.4c0,0,0,0,0,0c-0.9,0-1.6,0.5-1.9,1.4v0
		c-0.8,2.6-2.9,7.2-7.6,8.9c-0.8,0.3-1.3,1-1.3,1.8c0,0.8,0.5,1.5,1.3,1.8c4.7,1.8,6.8,6.3,7.6,8.9c0.3,0.8,1,1.4,1.9,1.4
		c0.9,0,1.6-0.5,1.9-1.4c0.8-2.6,2.9-7.2,7.6-8.9c0.8-0.3,1.3-1,1.3-1.8C36.7,77.2,36.2,76.5,35.4,76.2z"/>
	<path class="st0" d="M99.7,15.8C95,14,92.9,9.5,92.1,6.9c-0.3-0.8-1-1.4-1.9-1.4c0,0,0,0,0,0c-0.9,0-1.6,0.5-1.9,1.4v0
		c-0.8,2.6-2.9,7.2-7.6,8.9c-0.8,0.3-1.3,1-1.3,1.8c0,0.8,0.5,1.5,1.3,1.8c4.7,1.8,6.8,6.3,7.6,8.9c0.3,0.8,1,1.4,1.9,1.4
		c0.9,0,1.6-0.5,1.9-1.4c0.8-2.6,2.9-7.2,7.6-8.9c0.8-0.3,1.3-1,1.3-1.8C101,16.8,100.5,16.1,99.7,15.8z"/>
	<path class="st0" d="M60.5,30.5c3.3,1.2,4.7,4.5,5.3,6.3c0.2,0.8,0.9,1.3,1.7,1.3c0.8,0,1.5-0.5,1.7-1.3c0.6-1.8,2-5,5.3-6.3
		c0.7-0.3,1.2-0.9,1.2-1.7c0-0.8-0.5-1.4-1.2-1.7c-3.3-1.2-4.7-4.5-5.3-6.3c-0.2-0.8-0.9-1.3-1.7-1.3s-1.5,0.5-1.7,1.3
		c-0.6,1.8-2,5-5.3,6.3c-0.7,0.3-1.2,0.9-1.2,1.7C59.3,29.6,59.8,30.2,60.5,30.5L60.5,30.5z"/>
	<path class="st0" d="M55.5,39.2C55,36.2,50.2,5.5,49.9,4c-0.1-0.8-0.6-1.6-1.3-2c-0.7-0.5-1.6-0.6-2.4-0.4l-35.5,8.7
		c-1.5,0.4-2.5,1.8-2.2,3.4c0,0.1,4.9,30.8,4.9,31.1c0.1,0.9-0.5,0.8-1.2,0.9c-0.5,0.1-1.1,0.3-1.6,0.4c-1.1,0.4-2.1,0.9-3.1,1.5
		c-5.5,3.5-7.6,10-4.8,14.4c1.4,2.2,3.8,3.6,6.7,3.8c2.9,0.3,5.9-0.6,8.4-2.2c2.5-1.6,4.6-4,5.5-6.9c0.2-0.7,0.4-1.5,0.5-2.3
		c0.1-0.7,0-1.4,0-2.1C23.7,51.6,19,22.2,19,21.7c-0.1-0.5,0-0.6,0.4-0.7c1.1-0.3,22.4-5.5,22.6-5.5c0.4-0.1,0.6,0,0.7,0.4
		c0.5,3.4,2.7,16.9,2.8,17.5c0.2,1-0.4,0.9-1.3,1.1c-0.6,0.1-1.1,0.3-1.6,0.5c-1.1,0.4-2.1,0.9-3,1.5c-5.1,3.3-7.3,9.1-5.3,13.5
		c0,0,0.3,0.8,1.1,1.8c0,0,0.1,0.1,0.1,0.1c1.6,1.8,4.6,4,9.3,2.7c1.7-0.3,3.5-1,5-2c2.3-1.4,4.2-3.5,5.2-6c0.5-1.1,0.8-2.4,0.8-3.6
		C55.9,41.5,55.7,40.5,55.5,39.2z"/>
</g>
</svg>
