<?xml version="1.0" encoding="utf-8"?>
<!-- Generator: Adobe Illustrator 24.0.1, SVG Export Plug-In . SVG Version: 6.00 Build 0)  -->
<svg version="1.1" id="Capa_1" xmlns="http://www.w3.org/2000/svg" xmlns:xlink="http://www.w3.org/1999/xlink" x="0px" y="0px"
	 viewBox="0 0 8192 1486.2" style="enable-background:new 0 0 8192 1486.2;" xml:space="preserve">
<style type="text/css">
	.st0{clip-path:url(#SVGID_2_);}
	.st1{fill:#81948B;}
	.st2{fill:#C6D7CF;}
	.st3{fill:#EFEDE7;}
</style>
<g>
	<defs>
		<rect id="SVGID_1_" transform="matrix(-1 -4.489665e-11 4.489665e-11 -1 8192 1486.2222)" width="8192" height="1486.2"/>
	</defs>
	<clipPath id="SVGID_2_">
		<use xlink:href="#SVGID_1_"  style="overflow:visible;"/>
	</clipPath>
	<g class="st0">
		<path class="st1" d="M2494.5,1507.6v-353.1c1359.7,224.6,1738.1-461.1,3204.2-756.7s2885,496.6,2885,496.6l-32.5,613.2H2494.5z"/>
		<path class="st2" d="M-228.8,1429.3V695.5C902.7-561.8,3684.3,334,5711.6,711.2s2828.8-78.6,2828.8-78.6l38,796.7H-228.8z"/>
		<path class="st3" d="M-1288.3,1507.6c3.7-129,6.6-214.9,6.6-214.9c1461.5-1713,4038.8-377.2,6710.4,31.4S8949,679.7,8949,679.7
			l58.7,827.8H-1288.3z"/>
	</g>
</g>
</svg>
