<?xml version="1.0" encoding="utf-8"?>
<!-- Generator: Adobe Illustrator 24.0.1, SVG Export Plug-In . SVG Version: 6.00 Build 0)  -->
<svg version="1.1" id="Capa_1" xmlns="http://www.w3.org/2000/svg" xmlns:xlink="http://www.w3.org/1999/xlink" x="0px" y="0px"
	 viewBox="0 0 231.7 415.2" style="enable-background:new 0 0 231.7 415.2;" xml:space="preserve">
<style type="text/css">
	.st0{fill:#50736C;}
	.st1{fill:#C6D7CF;}
	.st2{fill:#D8D5B3;}
	.st3{fill:#79A28F;}
	.st4{fill:#BCC497;}
	.st5{fill:url(#SVGID_1_);}
	.st6{fill:#CFD6BB;}
	.st7{fill:#C7C38F;}
	.st8{fill:#809B96;}
	.st9{fill:#534351;}
	.st10{fill:#81948B;}
	.st11{fill:#4A6360;}
	.st12{fill:#7A9080;}
	.st13{fill:#C8DAB9;}
	.st14{fill:#9BAE7F;}
</style>
<g>
	<g>
		<polygon class="st0" points="176.7,152.4 200.1,190.8 195.8,187.7 172.2,147.7 		"/>
		<path class="st1" d="M145.4,46.7c0,0,11.9-40.3-17.3-46.7c0,0-14,21.2,1.8,30C129.9,30,138.7,33.2,145.4,46.7z"/>
		<path class="st1" d="M140.1,54.2c0,0-0.8-23.9-25.6-20.8c0,0-8.9,1.5-1.7,10.4C112.9,43.8,114.6,63.9,140.1,54.2z"/>
		<path class="st0" d="M153.3,68.4l-13.9-40.2l6.9,30.3l-14.1-10.3C132.2,48.2,155,68,153.3,68.4z"/>
		<path class="st2" d="M169,117.1c0,0,21.3-45.9-14.9-69.4c0,0-0.6,17.6-7.8,26.1C146.3,73.7,131.2,90.9,169,117.1z"/>
		<path class="st2" d="M183.3,128c0,0,13.9-8.1,11-23.3c0,0,6.9-20.6-4.7-11.7C189.6,93,168.6,106,183.3,128z"/>
		<polygon class="st0" points="211.7,278.8 207.2,252.2 205.4,218.6 204.3,241.3 194,217.3 190.2,210.2 184.1,204.1 175.3,194.3 
			164.2,175.7 163.5,182.7 174,199.6 184.1,210.2 192,221.4 204.8,255.6 		"/>
		<polygon class="st0" points="182.6,184.5 177.1,151.6 176.6,143 178.5,136.3 185,123.9 182.6,114.7 181.5,126.4 175.3,137.8 
			167.6,108.2 172,136.6 174.9,151.8 		"/>
		<path class="st3" d="M192.1,221.4c0.6,0.4,1.1,0.9,1.5,1.4c0,0,8.3-53.4-29.2-56.2c0,0-9.3-3.3-14.7-1
			C173.5,186.9,185.8,206.2,192.1,221.4z"/>
		<path class="st1" d="M169.7,212.8c0,0,15.1,2.9,22.4,8.7c-6.3-15.3-18.6-34.6-42.4-55.8c-3.3,1.4-5.2,4.9-2.9,12.3
			C146.8,178,141.4,205.7,169.7,212.8z"/>
		<path class="st4" d="M204.5,231.6c-1.3-15.8-1.6-38.4,3.9-59.3c-1.5,0.2-3.4,1-5.8,2.9C192,183.5,176.6,207.2,204.5,231.6z"/>
		<path class="st2" d="M222.5,201l-8.3-21.9c0,0-0.6-7.5-5.9-6.9c-5.5,20.9-5.2,43.5-3.9,59.3c0.6,0.5,1.2,1.1,1.9,1.6
			C206.4,233.1,235.5,218.5,222.5,201z"/>
		<path class="st4" d="M187.8,174.8c0.3,0.3,0.6,0.6,0.9,1c0,0,3.4-52.1-41.8-50.7c0,0-13.8,0.9-17.3,4.5
			C165.5,140.3,181.6,163,187.8,174.8z"/>
		<path class="st2" d="M132,135.6c0,0,7.3,38,39.5,33.3c0,0,7.5-3.4,16.3,5.9c-6.2-11.8-22.3-34.5-58.3-45.2
			C128.1,131.1,128.3,133.1,132,135.6z"/>
	</g>
	<g>
		<path class="st1" d="M216.2,192.5c0,0,16.5,0.9,14.6-15.5c0,0,3.4-10.5-3.1-7.6C227.7,169.4,204,177.2,216.2,192.5z"/>
		
			<linearGradient id="SVGID_1_" gradientUnits="userSpaceOnUse" x1="-1071.4808" y1="-7354.6538" x2="-1041.0657" y2="-7354.6538" gradientTransform="matrix(0.2175 0.9761 -0.9761 0.2175 -6746.5425 2796.647)">
			<stop  offset="0" style="stop-color:#CFD6BB"/>
			<stop  offset="1" style="stop-color:#C7C38F"/>
		</linearGradient>
		<path class="st5" d="M204,181.2l3.5-15.1c0,0,5.6-5.8-1-16.1c0,0-7.5-2.6-10.7,13.5C195.8,163.6,189.5,177.6,204,181.2z"/>
		<path class="st6" d="M163.6,163c0,0,5.1-4,11.7-2.9c0,0,9.6-0.4,3.1-15.6c0,0-8.3-9-16.9,7.8C161.5,152.4,158.6,159.9,163.6,163z"
			/>
		<path class="st7" d="M155,144.9c0,0,11.3-21.4-6.6-33.4C148.4,111.5,131.3,129.9,155,144.9z"/>
		<path class="st1" d="M128.8,122.5c0,0,13-12.1-1.2-28.4C127.6,94.1,111.6,110.8,128.8,122.5z"/>
		<path class="st7" d="M113.2,111.6c0,0,10.5-19.8-10.4-32.6c0,0-2.8-0.8-2.6,2.6C100.3,81.6,95.8,106.6,113.2,111.6z"/>
		<path class="st3" d="M109.5,133.3c0,0-1.8-19.6-21.2-17.9C88.3,115.4,90.8,134.3,109.5,133.3z"/>
		<path class="st3" d="M124.9,169.1c0,0-9.5-19.3-26.8-18.9c0,0-4.8,1.4,0.3,7.7C98.4,157.8,111.4,177.8,124.9,169.1z"/>
		<path class="st1" d="M132.1,183.2c0,0-12-9-20.1,2.2C111.9,185.4,123.6,194.3,132.1,183.2z"/>
		<path class="st1" d="M150,225.3c0,0-3.9-23.7-22.7-25c0,0-10.2-4.9-4.6,6.5C122.7,206.8,128.4,228.4,150,225.3z"/>
		<path class="st6" d="M156.1,237.4c0,0-14.4-13.1-29.7,5.2C126.4,242.6,145.3,255.5,156.1,237.4z"/>
		<path class="st1" d="M196.4,285.6c0,0,14-18-4-22C192.3,263.7,183.1,277.4,196.4,285.6z"/>
		<path class="st1" d="M183.8,284.4c0,0,4.1-21.5-16.8-28C167,256.4,162.3,281.5,183.8,284.4z"/>
		<path class="st3" d="M171,286.1c0,0-5-17-13.4-16.9c-0.6,0-1.1,0.1-1.7,0.3c0,0-4.9,2.5-11.4-1.2c0,0-7.8-4-2.1,4.8
			C142.3,273.1,149.6,294.1,171,286.1z"/>
		<path class="st8" d="M223.5,313.9c0,0-25.6-84.1-14.5-109.8l8.1-12.4l-1.8-2.8l-6.9,11.5c0,0-6.5-13.7-6.8-24l-2.8-1.1
			c0,0,1,17.2,5.9,22.7c0,0,3.3,5.8,0.3,10.5c0,0-2.3,29.4,3.2,46.5c0,0-8.7-18.4-17.2-25.6l-29.7-34.3c0,0-10.5-22.6,3.9-33.8
			l-1.8-1.6l-6.7,11.2l-2.4-31.5l-2.6-2.6l3.3,36.7l3.4,19l-1.9-1l-24.9-41.1l-2.1-4.1l-1.2-28.4l-1.6,0.4l0.9,21.8l-6.4-12
			c0,0-6.7-7.1-8.6-21.8l-3.2-1.3c0,0,2.7,17.1,9.8,24.7l6.8,13.7l-20-14.1l-2.3,1.4l24.7,17.1l21.4,37L119.4,166l0.4,1.9l20.3,12.9
			l-16,3.9l0.6,1.3l19.2-2.6l17,14.8l30,33.1c0,0,9.5,13,12.2,18.7c0,0-19.5-13.1-31-16c0,0-23.7-4.7-28.9-15.3l-1.3,2
			c0,0,13.4,12.7,24.8,13.6l-20,4.2l0.9,2.7c0,0,17.9-8.3,26.6-3.9c0,0,21.6,5.8,28.6,16.8l7.4,8.7l10.6,52.8L223.5,313.9z"/>
		<path class="st8" d="M222.8,314.1c0,0-0.3-16.7-14.2-19.3c0,0-9.3-0.1-11.4-5.1l0.1-18.3l-1.7,19.1l-20.9-16l0.3,1.2l19.9,15.6
			c0,0-21.7-1.2-32.9-12.1c0,0,10.5,14.5,33.1,15.1s25.6,5.4,26.1,21.3L222.8,314.1z"/>
	</g>
	<g>
		<path class="st9" d="M231.6,305c0,0-25.3,33.8-95.1,38.3c0,0,35.9,3.4,54.1-8.7L119.3,380l52.4-29.8L231.6,305z"/>
		<path class="st10" d="M115.8,337.7c-22.7-8.2-41.9-5.8-56.5-0.3c-2.2,1.3-3.4,2.1-3.4,2.1c22.8-2.7,37,7.3,37,7.3
			c46.1,20.5,97.7-13,97.7-13c-1.2,0-2.8,0-4.5-0.1C155.4,347.1,115.8,337.7,115.8,337.7z"/>
		<path class="st11" d="M59.3,337.4c14.6-5.5,33.8-8,56.5,0.3c0,0,39.6,9.5,70.3-4c-17.8-1.1-58.7-9.5-58.7-9.5
			C95.4,318.7,68.5,332,59.3,337.4z"/>
		<path class="st10" d="M39.7,382.4c-0.2,0.1-0.3,0.2-0.3,0.2c21.4,7.5,67.7,9.5,67.7,9.5c31.2,2.6,58-39.4,58-39.4l-0.4,0
			C105.1,386.6,64.3,387.9,39.7,382.4z"/>
		<path class="st11" d="M164.8,352.7l-61.2,6.7c-30.8,2.7-60.7,21-63.9,23C64.3,387.9,105.1,386.6,164.8,352.7z"/>
		<path class="st11" d="M196.9,330.9c0.1-0.9,0.1-1.4,0.1-1.4c-42.7,29.8-47.9,56.6-47.9,56.6c-1.7,13.2-6.2,22.6-8.5,26.8
			C150.9,404.6,169.7,383.7,196.9,330.9z"/>
		<path class="st10" d="M196.9,330.9c-27.3,52.8-46.1,73.7-56.3,82c-0.9,1.5-1.4,2.4-1.4,2.4c9.4-4.3,31.4-21.5,31.4-21.5
			C192,382.2,196.3,339.3,196.9,330.9z"/>
	</g>
	<g>
		<path class="st12" d="M55.2,186.3l9.9,14.6l7.8,15.2l17.7,30.7l20.2,22.8l-11.2-3.2l-13-0.5l-8.5,5l13.6-2.4l9.2,1.1l14.2,4.2
			l20.5,16.5l30.6,13.5l22.4,5.4l-7.4,8.6l-9,5.6l8.1-2.9l12.9-12.2l27.1,2l5.6,0.2l5.3,0.4l-0.7-2.9l-28.8-0.6l-7.8-1.8
			c0,0-27.7-14-38-34.7l-2.7,3c0,0,22.4,25.9,37.1,32.1l-21.7-5.1l-30.7-11.7l-18.1-14.6L96,248.8L92,226.2L93,215l-4.9,0.2
			l4.6,29.9l-21-39.5l-13.5-17.8L55.2,186.3z"/>
		<path class="st13" d="M22.9,97c-4.9,8.4-13.2,26.5-8,44.3c0,0-13.4,17,7.3,27.6c0,0,15.8,32.1,47.1,39.5c0,0-0.1-0.4-0.2-1.1
			C42.5,172.8,28.8,123.7,22.9,97z"/>
		<path class="st14" d="M69.1,207.2c-0.9-5.3-4.3-27.8,3.1-38.4c0,0,16.4-33.7-19.5-50.7c0,0-14.7-29.8-26.8-26c0,0-1.3,1.8-3.1,4.9
			C28.8,123.7,42.5,172.8,69.1,207.2z"/>
		<path class="st14" d="M93.5,267.8c-1-1.9-2.5-3.8-4.6-5.6c0,0-22.5-38.3-50.5-8.1c0,0-7.8,6.7-17.7,5.5c0,0-15.2,5.1-20.7,26.5
			c0,0,0.3,0.2,0.9,0.5C21.1,273.8,58.4,255.5,93.5,267.8z"/>
		<path class="st13" d="M93.5,267.8c-35-12.3-72.3,5.9-92.6,18.9c5.9,3.6,41,23.9,58.5,8.2c0,0,3.7-3.4,12.6-2.8
			C79.9,292.7,100.1,280.9,93.5,267.8z"/>
		<path class="st13" d="M140,225c-0.6-19.9-8.6-29.1-15.6-33.3c-6.7,14.9-33.5,83.4,34.7,91.7c0,0,1.4-0.4,3.1-1.3
			C142.1,260.5,140,225,140,225z"/>
		<path class="st14" d="M160.1,211.3c0,0-15.6-30.4-34.5-22.6c0,0-0.5,1-1.3,2.8c7.1,4.3,15.1,13.5,15.6,33.3c0,0,2.1,35.5,22.1,57
			c2.6-1.5,6-4.5,6.2-10C168.3,272,182,238.1,160.1,211.3z"/>
		<path class="st14" d="M137.1,312.3c0,0,11.3,1.6,21.8-2.6c0,0,9.8,0.6,19.5,2.8c-4.6-2.8-11.5-8-17.5-16.8c0,0-8.7-16.6-33.4-2.4
			c0,0-3.7,6.3-12.8,3.4c0,0,0,0.6,0,1.5C120.2,303.8,128.5,310.5,137.1,312.3z"/>
		<path class="st13" d="M158.9,309.6c-10.5,4.3-21.8,2.6-21.8,2.6c-8.7-1.8-16.9-8.5-22.5-14.1c0.2,7.7,2.9,42.3,35,43.2
			c0,0,25,1.8,34.2-26.2c0,0-2.2-0.8-5.5-2.8C168.7,310.3,158.9,309.6,158.9,309.6z"/>
		<path class="st14" d="M113.5,153.2c-1.8,16.9-9.9,27.1-9.9,27.1c-12.1,12.2-13,29.3-12.4,38.8c10.7-1.8,10.7-15,10.7-15
			c22.9-9.5,14.4-27.9,14.4-27.9C121.6,164.5,117.3,157,113.5,153.2z"/>
		<path class="st13" d="M109.6,150.1c-1.9,11.6-15.9,16.9-15.9,16.9c-31.8,22.8-4.1,52.3-4.1,52.3c0.6,0,1.1-0.1,1.6-0.2
			c-0.6-9.5,0.4-26.5,12.4-38.8c0,0,8.1-10.2,9.9-27.1C111.4,151.1,109.6,150.1,109.6,150.1z"/>
	</g>
</g>
</svg>
