<?xml version="1.0" encoding="utf-8"?>
<!-- Generator: Adobe Illustrator 24.0.1, SVG Export Plug-In . SVG Version: 6.00 Build 0)  -->
<svg version="1.1" id="Capa_1" xmlns="http://www.w3.org/2000/svg" xmlns:xlink="http://www.w3.org/1999/xlink" x="0px" y="0px"
	 viewBox="0 0 579.6 598.6" style="enable-background:new 0 0 579.6 598.6;" xml:space="preserve">
<style type="text/css">
	.st0{fill:none;stroke:url(#SVGID_1_);stroke-width:1.7896;stroke-miterlimit:10;}
	.st1{fill:none;stroke:url(#SVGID_2_);stroke-width:5.3687;stroke-miterlimit:10;}
	.st2{fill:none;stroke:url(#SVGID_3_);stroke-width:1.7896;stroke-miterlimit:10;}
	.st3{fill:#C6D7CF;}
	.st4{fill:#C7C38F;}
	.st5{fill:#CFD6BB;}
	.st6{fill:#79A28F;}
	.st7{fill:#809B96;}
	.st8{fill:#81948B;}
	.st9{fill:#81918F;}
	.st10{fill:#534351;}
	.st11{fill:#4A6360;}
	.st12{fill:#524351;}
	.st13{fill:#BCC497;}
	.st14{fill:#D8D5B3;}
	.st15{fill:#7A9080;}
	.st16{fill:#C8DAB9;}
	.st17{fill:#9BAE7F;}
</style>
<linearGradient id="SVGID_1_" gradientUnits="userSpaceOnUse" x1="-1098.1627" y1="1601.2797" x2="-527.8578" y2="1601.2797" gradientTransform="matrix(0 -1 1 0 -1308 -504)">
	<stop  offset="0" style="stop-color:#D89D3B"/>
	<stop  offset="0.1023" style="stop-color:#DBA141"/>
	<stop  offset="0.2373" style="stop-color:#E4AB51"/>
	<stop  offset="0.3899" style="stop-color:#F2BD6D"/>
	<stop  offset="0.5" style="stop-color:#FFCC85"/>
	<stop  offset="0.5765" style="stop-color:#FCC880"/>
	<stop  offset="0.6708" style="stop-color:#F4BC71"/>
	<stop  offset="0.7744" style="stop-color:#E6A958"/>
	<stop  offset="0.8848" style="stop-color:#D38E35"/>
	<stop  offset="0.9993" style="stop-color:#BA6B08"/>
	<stop  offset="1" style="stop-color:#BA6B08"/>
</linearGradient>
<polygon class="st0" points="47.2,167 47.2,451.1 293.3,593.1 539.3,451.1 539.3,167 293.3,24.9 "/>
<linearGradient id="SVGID_2_" gradientUnits="userSpaceOnUse" x1="-1462.8831" y1="1618.7419" x2="-875.8192" y2="1618.7419" gradientTransform="matrix(-0.2707 -0.9627 0.9627 -0.2707 -1588.6099 -383.1355)">
	<stop  offset="0" style="stop-color:#D89D3B"/>
	<stop  offset="0.1023" style="stop-color:#DBA141"/>
	<stop  offset="0.2373" style="stop-color:#E4AB51"/>
	<stop  offset="0.3899" style="stop-color:#F2BD6D"/>
	<stop  offset="0.5" style="stop-color:#FFCC85"/>
	<stop  offset="0.5765" style="stop-color:#FCC880"/>
	<stop  offset="0.6708" style="stop-color:#F4BC71"/>
	<stop  offset="0.7744" style="stop-color:#E6A958"/>
	<stop  offset="0.8848" style="stop-color:#D38E35"/>
	<stop  offset="0.9993" style="stop-color:#BA6B08"/>
	<stop  offset="1" style="stop-color:#BA6B08"/>
</linearGradient>
<polygon class="st1" points="4.8,232.7 83.5,512.3 364.9,584 567.7,376.1 489.1,96.5 207.7,24.8 "/>
<linearGradient id="SVGID_3_" gradientUnits="userSpaceOnUse" x1="-707.9463" y1="1449.2174" x2="-126.4161" y2="1449.2174" gradientTransform="matrix(0.3105 -0.9506 0.9506 0.3105 -961.4344 -541.2914)">
	<stop  offset="0" style="stop-color:#D89D3B"/>
	<stop  offset="0.1023" style="stop-color:#DBA141"/>
	<stop  offset="0.2373" style="stop-color:#E4AB51"/>
	<stop  offset="0.3899" style="stop-color:#F2BD6D"/>
	<stop  offset="0.5" style="stop-color:#FFCC85"/>
	<stop  offset="0.5765" style="stop-color:#FCC880"/>
	<stop  offset="0.6708" style="stop-color:#F4BC71"/>
	<stop  offset="0.7744" style="stop-color:#E6A958"/>
	<stop  offset="0.8848" style="stop-color:#D38E35"/>
	<stop  offset="0.9993" style="stop-color:#BA6B08"/>
	<stop  offset="1" style="stop-color:#BA6B08"/>
</linearGradient>
<polygon class="st2" points="93.1,89.6 3.2,365.1 196.7,580.7 480.2,520.9 570.2,245.5 376.6,29.8 "/>
<path class="st3" d="M215.2,26.9c0,0,3.6-12.7-9.6-14c0,0-7.6-4.4-6.4,1.1C199.2,14,201.2,33.8,215.2,26.9z"/>
<path class="st4" d="M204.3,34.5l-11.1-5.3c0,0-3.6-5.3-12.7-2c0,0-3.3,5.3,8.7,10.7C189.2,37.8,199,45.2,204.3,34.5z"/>
<path class="st5" d="M183.2,62.7c0,0-2.2-4.7-0.2-9.6c0,0,1.3-7.6-11.6-5.1c0,0-8.4,4.9,3.1,14.4C174.5,62.5,179.8,66,183.2,62.7z"
	/>
<path class="st4" d="M167.6,66.3c0,0-14.7-12.4-27.1-0.7C140.5,65.6,151.8,82,167.6,66.3z"/>
<path class="st3" d="M145.6,82.7c0,0-7.1-12.2-22.2-4C123.4,78.7,133.6,94,145.6,82.7z"/>
<path class="st4" d="M134.5,92.9c0,0-13.6-11.6-27.1,2.4c0,0-1.1,2,1.6,2.4C109,97.8,127.6,105.6,134.5,92.9z"/>
<path class="st6" d="M150.7,99.6c0,0-15.6-2-17.6,13.3C133.2,112.9,148.3,114.3,150.7,99.6z"/>
<path class="st6" d="M181.2,93.8c0,0-16.7,4-19.3,17.6c0,0,0.2,4,6,1.1C167.8,112.5,185.6,105.8,181.2,93.8z"/>
<path class="st3" d="M193.4,90.7c0,0-9.1,7.8-1.8,16C191.6,106.7,200.5,99.2,193.4,90.7z"/>
<path class="st3" d="M229.2,84c0,0-19.1-1.1-23.3,13.3c0,0-5.6,7.1,4.2,4.7C210.1,102,227.8,101.4,229.2,84z"/>
<path class="st5" d="M239.6,81.4c0,0-12.7,8.9-1.1,24C238.5,105.4,251.8,92.9,239.6,81.4z"/>
<path class="st3" d="M284.1,58.5c0,0-11.6-14-17.8-0.7C266.3,57.8,275.4,67.4,284.1,58.5z"/>
<path class="st3" d="M281,68c0,0-16-6.9-24.7,8.2C256.3,76.3,275,84.3,281,68z"/>
<path class="st6" d="M280.1,78.3c0,0-14.1,1-15.5,7.5c-0.1,0.4-0.1,0.9-0.1,1.4c0,0,1.1,4.2-2.9,8.7c0,0-4.4,5.3,3.3,2.4
	C265,98.3,282.5,96.3,280.1,78.3z"/>
<path class="st7" d="M310.7,42.3c0,0-69.8,5.3-87.8-7.8l-8.2-8.4l-2.4,0.9l7.8,7.3c0,0-11.8,2.7-19.8,1.1l-1.3,2
	c0,0,13.6,2.2,18.7-0.7c0,0,5.1-1.6,8.2,1.6c0,0,22.4,6.9,36.7,5.6c0,0-15.8,3.6-22.9,8.9l-31.8,17.1c0,0-19.3,4.2-25.6-8.9
	l-1.6,1.1l7.6,7.1l-24.9-3.6l-2.4,1.6l29.1,3.8l15.3,0.7l-1.1,1.3l-36.2,12.2l-3.6,0.9l-22.2-4v1.3l17.1,3.1L149,89.4
	c0,0-6.7,4-18.4,2.9l-1.6,2.2c0,0,13.8,0.9,20.9-3.3l11.8-2.9l-14.4,13.1l0.7,2l17.6-16.2l32.4-10.2l-20,20.7h1.6L193,84l0.2,13.1
	l1.1-0.2l1.3-15.3l14.4-10.7L241,53.4c0,0,11.8-5.1,16.7-6.2c0,0-13.6,12.9-17.8,21.3c0,0-7.8,17.6-16.9,19.8l1.3,1.3
	c0,0,12.2-8.2,14.9-16.9L239,88.9l2.2-0.2c0,0-3.3-15.3,1.6-21.3c0,0,8.2-15.8,18-19.3l8-4.2l42.9,0.9L310.7,42.3z"/>
<path class="st7" d="M310.7,42.9c0,0-13-2.7-17.5,7.7c0,0-1.7,7.2-5.9,8l-14.2-3.3l14.6,4.6l-16.1,13.4l1,0l15.6-12.8
	c0,0-4.7,16.6-15.1,23.4c0,0,13-5.6,17.5-23.1c4.4-17.5,8.6-19,21-16.6L310.7,42.9z"/>
<path class="st8" d="M467.8,85.4c0,0-31.4-7.6-27.1-34.9c0.1-0.4,0.1-0.7,0.2-1.1c0,0-10.6-13.2-7.4-34.2l21,15.5
	c0,0,16.6,12.1,13.5,25C468,55.7,464.2,76.3,467.8,85.4z"/>
<path class="st4" d="M418.6,48.8c0,0,3.3-36.1-23.1-39.4c0,0-9.5-6.4-25.6-5.9c0,0-3.1,3.5,6.7,7.9c0,0,10.2,6.7,9.7,13.1
	c0,0,0.2,17.2,15.4,21.3C401.7,45.9,412.1,49.3,418.6,48.8z"/>
<path class="st4" d="M375.6,38.7c0,0-4.2-11.9-12.3-13.2c0,0-6.3-1.9-11-12c0,0-6.6-7.5-27-4.7c0,0-12.9-1.7-8.4,2.1
	c0,0,9.6,15.9,20.5,20.6C337.5,31.6,353.5,44.7,375.6,38.7z"/>
<path class="st5" d="M404.9,56.6l-29.6-5.5c0,0-8.9-1.9-25.3,5.3l-11.9,1.8c0,0-11,1.4,1.2,5.4C339.3,63.7,376.5,86.1,404.9,56.6z"
	/>
<path class="st8" d="M342.2,49c0,0-12.6-3.1-27.8,6.3l-11.9,3.6c0,0-4.6,2.8,0.4,2.5c0,0,8.4,4.4,13.2,2.7c0,0,7.3-2.1,13-9.3
	C329.2,54.7,336.5,49.9,342.2,49z"/>
<polygon class="st9" points="498.7,140.6 485,119.9 472.3,104.5 467.2,88.5 463.4,81.7 457.5,73.7 453.6,68.3 457.2,76.3 
	461.3,82.9 467,92 468.1,99.8 441.2,75.8 431.1,67.8 419.5,51.8 413.6,46.7 407.1,42 402.7,38.7 395.2,27.2 390.8,23.3 400.3,38.1 
	404.7,42.9 410.1,46.4 414.5,49.4 420.7,55.9 428.1,66.9 416,59.2 403.2,54.7 385.8,46.4 360.6,32.5 380.7,46.4 347.5,44 
	331.8,43.2 324.4,44 319.7,47 333.3,45.5 344.9,46.4 336.6,50.3 347.8,46.7 378.4,48.2 392,51.8 401.5,56.2 394.7,57.4 410.4,58.9 
	423.4,66 445.9,84.3 436.4,83.2 423.1,79 393.8,81.1 423.4,81.4 436.4,85.8 446.5,86.7 454.8,90.9 471.4,107.8 484.4,122.9 
	467.8,118.1 454.2,115.5 469.6,120.2 485,124.3 498.4,143.3 "/>
<g>
	<path class="st10" d="M458.7,125.3c0,0,8.2-20,42.2-31.2c0,0-18.2,2.9-25.7,11.2l29.6-31.6l-22.2,21.5L458.7,125.3z"/>
	<path class="st8" d="M511.9,94.2c12.3,1.2,21.5-2.5,28.1-7.1c0.9-0.9,1.4-1.5,1.4-1.5c-10.9,4.2-19.3,1.1-19.3,1.1
		c-25.5-4.2-46.8,19-46.8,19c0.6-0.2,1.4-0.4,2.2-0.5C491.1,94.6,511.9,94.2,511.9,94.2z"/>
	<path class="st11" d="M540,87.1c-6.5,4.6-15.7,8.3-28.1,7.1c0,0-20.9,0.4-34.3,11c9-1.7,30.3-2.8,30.3-2.8
		C524.5,101,536.1,91,540,87.1z"/>
	<path class="st8" d="M543.9,62.3c0.1-0.1,0.1-0.1,0.1-0.1c-11.6-1-34.8,4-34.8,4c-15.8,2.7-23.7,27-23.7,27l0.2-0.1
		C511,68.6,531.1,62.7,543.9,62.3z"/>
	<path class="st11" d="M485.7,93.1l29.5-11.2c14.9-5.3,27.4-18.2,28.7-19.6C531.1,62.7,511,68.6,485.7,93.1z"/>
	<path class="st11" d="M472.6,108c0.1,0.5,0.1,0.7,0.1,0.7c17.4-20.3,16.5-34.2,16.5-34.2c-0.8-6.8,0.2-12,0.8-14.4
		C486,65.5,479.3,78.3,472.6,108z"/>
	<path class="st8" d="M472.6,108c6.8-29.7,13.4-42.5,17.4-47.9c0.2-0.9,0.4-1.3,0.4-1.3c-4.1,3.3-12.8,14.7-12.8,14.7
		C468.4,81.9,471.8,103.8,472.6,108z"/>
</g>
<path class="st12" d="M513.5,186.9l-6.2-13.9l-5.9-26.4l-5.3-7.7l-1.2,13l-1.2,7.1l-1.5,6.5l-2.7,2.7c0,0,5.3-20.4,5.3-30.8
	l-10.4-14.2l13,5.6l-8.6-2.1l15.4,21l4.1,3.9l11.3,3.9l-0.3,1.2l-8-2.1l-6.8-3.9l2.7,15.1l7.4,19.9L513.5,186.9z"/>
<path class="st9" d="M467.5,134.7c0,0,14.8-8.9,15.7-16C483.2,118.7,481.5,132.9,467.5,134.7z"/>
<path class="st8" d="M523.4,216.7c0,0,4.8,12.4,6.8,30c3.4-7,15.5-35.1,2-51.4l-24.7-28.1c0,0-0.2,0.7-0.5,1.9
	C513.8,177.6,522.7,193.1,523.4,216.7z"/>
<path class="st11" d="M530.2,246.6c-1.9-17.6-6.8-30-6.8-30c-0.7-23.5-9.6-39.1-16.4-47.6c-1.4,5.1-5.4,19-8.4,23.4
	c0,0-5.8,18.3,10.4,29.8c0,0,19,12.4,20.5,26C529.4,248.2,529.7,247.7,530.2,246.6z"/>
<path class="st11" d="M573.1,163.8c-4.1-1.5-6.5-7.7-6.5-7.7c-3-7.6-20.1-14.2-20.1-14.2c-10.6-8.4-18.9,2.1-18.9,2.1
	c-8.8,11-19.9,6.6-19.1,8.6C512.1,153.8,551.2,165.7,573.1,163.8z"/>
<path class="st8" d="M575.9,163.4c-1.3,0.4-2.5,0.2-3.6-0.3c-19.4,2.3-54.3-7.5-63.8-10.3c13.7,19.9,30.3,21.4,30.3,21.4
	C566.7,178.9,575.9,163.4,575.9,163.4z"/>
<path class="st11" d="M494.7,146.7c0,0-0.3,0.9-1,2.3c0.2,7.8-3.4,18.5-15.5,32.7c0,0-4.6,11.8-7.1,26.9l10.2-13
	C481.3,195.5,507.5,187.2,494.7,146.7z"/>
<path class="st8" d="M493.6,149c-2.2,4.2-8,12.6-20.7,15c0,0-19.4,10.7-8.4,30c0,0-0.9,13.7,6,15.2l0.5-0.7
	c2.6-15,7.1-26.9,7.1-26.9C490.2,167.5,493.8,156.8,493.6,149z"/>
<path class="st11" d="M495.8,126.9c-0.2,0.5-0.3,0.9-0.3,0.9c17.7,15.5,27.7-3.2,29-5.7C515.5,126.8,502.7,127.2,495.8,126.9z"/>
<path class="st8" d="M513.6,120c-11.1-6.9-16.5,3.7-17.9,7c7,0.3,19.7-0.1,28.7-4.9c0.1-0.2,0.1-0.3,0.1-0.3
	C517.2,124.9,513.6,120,513.6,120z"/>
<path class="st13" d="M417.9,136.7c-0.9-0.2-1.8-0.4-2.7-0.7c0,0,18,29.4,46.7,15c0,0,18-11.6,10.2-19
	C449.6,152.8,426.6,142.1,417.9,136.7z"/>
<path class="st14" d="M417.9,136.7c8.7,5.4,31.6,16.1,54.1-4.8c-0.9-0.8-2.1-1.6-3.7-2.3C459.7,125.8,439.1,141.6,417.9,136.7z"/>
<path class="st4" d="M473,121.6c0.1,0,0.1-0.1,0.2-0.1c0,0-34.5-40.5-78.1-2.3c0,0,0.6-0.1,1.6-0.3C414.4,113,446.2,106.3,473,121.6
	z"/>
<path class="st5" d="M473,121.6c-26.8-15.3-58.6-8.6-76.3-2.7c4.5-0.7,17.3-1.9,24.6,6.7C421.3,125.5,442.3,138,473,121.6z"/>
<path class="st3" d="M454.5,30.7l-20.7-15.3c1.6,10.9,5,23,12.3,28.8c0,0,8.9,4.7,8.9,14.2c0,0,2.9,17.6,12.7,26.4
	c-3.3-9.3,0.4-29.1,0.4-29.1C471.1,42.8,454.5,30.7,454.5,30.7z"/>
<path class="st6" d="M406.3,82.7c13.2,0.3,21.1,1.2,25.9,2.1c0.5-0.7,0.9-1.5,1.4-2.3l-0.2-0.3c0,0-18.6-17.5-31.5-10.5
	c0,0-7.4,7.2-14.3,5.5c0,0-4.9-4.7-13-0.1l-15.5,3.3c0,0-0.6,0.7-0.6,1.5C378.1,84.6,406.3,82.7,406.3,82.7z"/>
<path class="st5" d="M432.2,84.8c-4.8-0.9-12.7-1.8-25.9-2.1c0,0-28.2,1.8-47.7-0.8c0,0.9,0.8,1.9,4.1,2.4c0,0,15.6,10.5,26.5,8.8
	c0,0,12.6-4.4,20,0.1C409.2,93.2,424.2,96.6,432.2,84.8z"/>
<path class="st11" d="M314.5,31.2c-11.8-3-20-10.7-25.6-18.6c-0.1,0.1-0.2,0.1-0.2,0.2c0,0-1.2,2.1,3.3,6.2c0,0,5.9,13,18.5,18.1
	c0,0,8.4,1,11.6,3.7c0,0,4.1,3,9.6,3.4C322.1,36.4,314.5,31.2,314.5,31.2z"/>
<path class="st8" d="M325.6,31.6c0,0,3.3-6.5-6.1-8.4c0,0-7.4-6.2-18.8-5.5c0,0-5.8,1-8.2-3.3c0,0-2.5-2.6-3.8-1.8
	c5.7,7.9,13.9,15.6,25.6,18.6c0,0,7.6,5.2,17.1,13c1.5,0.1,3,0,4.6-0.4C336.1,43.8,326.7,40.3,325.6,31.6z"/>
<path class="st11" d="M307.5,47.6c-12,1.6-23.4-3.3-31.3-8.1c-0.2,0.3-0.1,0.8,0.7,1.7c0,0,8,8.6,18.1,9.2c0,0,19.9,8.9,31.7-5.2
	C316.4,47.5,307.5,47.6,307.5,47.6z"/>
<path class="st8" d="M289.5,40c0,0-6.3,3.3-12.1-0.6c0,0-1-0.2-1.3,0.3c7.9,4.8,19.3,9.7,31.3,8.1c0,0,8.9-0.1,19.2-2.4
	c0.2-0.2,0.3-0.4,0.5-0.5l-15.3-2.7C311.6,42.1,296.6,36.6,289.5,40z"/>
<g>
	<path class="st10" d="M182.1,547.5c0,0,1.3-0.5-1-0.3c-11.5,0.9-20,21.5-64.4,16.2c0,0,23,5.6,36-0.5L102,585.6l36.9-14.4
		L182.1,547.5z"/>
	<path class="st8" d="M103,557.2c-14-7.5-26.7-7.8-36.7-5.5c-1.5,0.6-2.4,1-2.4,1c15,0.4,23.4,8.2,23.4,8.2
		c28,17.7,64.8,0.8,64.8,0.8c-0.8-0.1-1.8-0.3-2.9-0.5C127.8,567.1,103,557.2,103,557.2z"/>
	<path class="st11" d="M66.3,551.7c10-2.2,22.7-2,36.7,5.5c0,0,24.9,9.9,46.1,4.1c-11.5-2.4-37.2-11.7-37.2-11.7
		C91.5,542.9,72.7,549.1,66.3,551.7z"/>
	<path class="st8" d="M50.1,579.7c-0.1,0.1-0.2,0.1-0.2,0.1c13.2,6.9,43.1,12.6,43.1,12.6c20.1,4.6,41.4-20.2,41.4-20.2l-0.2,0
		C92.2,588.6,65.5,585.6,50.1,579.7z"/>
	<path class="st11" d="M134.2,572.2l-40.4-1.4c-20.3-1.2-41.5,7.9-43.7,8.9C65.5,585.6,92.2,588.6,134.2,572.2z"/>
	<path class="st11" d="M162.6,558.6c0.2-0.5,0.3-0.8,0.3-0.8c-27.3,9.7-33.9,23.3-33.9,23.3c-2.9,6.8-6.6,11.2-8.5,13.1
		C127.1,591.3,140.3,582.8,162.6,558.6z"/>
	<path class="st8" d="M162.6,558.6c-22.3,24.3-35.5,32.7-42.1,35.6c-0.7,0.7-1.1,1.1-1.1,1.1c5.7-0.9,20-6.9,20-6.9
		C152.5,585.3,161,563,162.6,558.6z"/>
</g>
<g>
	<path class="st15" d="M78.7,437.6l4.7,11.5l3.2,11.6l7.8,23.7l10.6,18.6l-7.3-3.8L89,497l-6.6,2.2l9.7,0.3l6.2,2.1l9.2,4.9
		l11.8,14.3l19.1,13.7l14.7,7l-6.3,4.9l-7,2.6l6-0.8l10.7-6.5l18.4,5.3l3.9,1l3.6,1l-0.1-2.1l-19.8-4.6l-5.1-2.3
		c0,0-17.1-13.7-21.3-29.4l-2.3,1.7c0,0,11.8,21,21,27.5l-14.3-6.6l-19.5-12.5l-10.4-12.7l-12.6-21.2l0.5-16.2l2.3-7.6l-3.4-0.6
		l-1.1,21.3l-8.8-30.3L80.5,439L78.7,437.6z"/>
	<path class="st16" d="M69.2,371.3c-4.6,5.1-12.9,16.4-11.9,29.4c0,0-11.7,9.8,1.1,20.1c0,0,6.3,24.4,26.9,34c0,0,0-0.3,0-0.8
		C71.9,426.4,69.5,390.6,69.2,371.3z"/>
	<path class="st17" d="M85.3,454c0.1-3.8,1-19.8,7.6-26.1c0,0,16.2-20.9-6.1-37.8c0,0-5.9-22.7-14.7-21.8c0,0-1.2,1.1-2.9,3
		C69.5,390.6,71.9,426.4,85.3,454z"/>
	<path class="st17" d="M93.4,499.3c-0.4-1.4-1.2-2.9-2.4-4.6c0,0-10.1-29.7-33.7-12.8c0,0-6.3,3.5-13,1.3c0,0-11.2,1.4-18.1,15.3
		c0,0,0.2,0.2,0.5,0.5C42.7,493,71,485.8,93.4,499.3z"/>
	<path class="st16" d="M93.4,499.3C71,485.8,42.7,493,26.9,499c3.6,3.4,24.9,22.3,39.2,14.1c0,0,3-1.8,9.1-0.1
		C80.5,514.5,96.1,509.2,93.4,499.3z"/>
	<path class="st16" d="M131.6,476.4c2.5-13.8-1.8-21.3-6-25.2c-6.7,9.3-35,52.7,10.7,68.2c0,0,1,0,2.3-0.5
		C128,501.2,131.6,476.4,131.6,476.4z"/>
	<path class="st17" d="M147.5,469.9c0,0-6.4-23.2-20.5-20.5c0,0-0.5,0.6-1.3,1.8c4.3,4,8.5,11.5,6,25.2c0,0-3.6,24.8,7.1,42.5
		c2-0.7,4.8-2.2,5.7-6C144.4,512.9,158.8,491.5,147.5,469.9z"/>
	<path class="st17" d="M117.2,536.2c0,0,7.5,2.8,15.4,1.3c0,0,6.7,1.8,13,4.7c-2.8-2.6-6.8-7.1-9.7-14.1c0,0-3.6-12.7-22.7-6.5
		c0,0-3.5,3.8-9.4,0.5c0,0-0.1,0.4-0.2,1.1C106.7,527.9,111.5,533.7,117.2,536.2z"/>
	<path class="st16" d="M132.6,537.5c-7.9,1.5-15.4-1.3-15.4-1.3c-5.7-2.5-10.4-8.3-13.5-12.9c-1,5.3-4.1,29.6,17.9,34.8
		c0,0,17,4.8,27.4-13.2c0,0-1.4-0.9-3.4-2.7C139.2,539.3,132.6,537.5,132.6,537.5z"/>
	<path class="st17" d="M123.7,423.1c-3.7,11.4-10.7,17.3-10.7,17.3c-10.1,6.7-13.2,18.3-14.1,25c7.7,0.3,9.5-8.8,9.5-8.8
		c17.2-3.3,13.9-17.2,13.9-17.2C127.7,432.1,125.7,426.3,123.7,423.1z"/>
	<path class="st16" d="M121.4,420.4c-3,7.7-13.4,9.4-13.4,9.4c-25.2,11.1-10.3,35.5-10.3,35.5c0.4,0.1,0.8,0.1,1.1,0.1
		c1-6.6,4.1-18.2,14.1-25c0,0,7.1-5.9,10.7-17.3C122.6,421.3,121.4,420.4,121.4,420.4z"/>
</g>
</svg>
