<?xml version="1.0" encoding="utf-8"?>
<!-- Generator: Adobe Illustrator 24.0.1, SVG Export Plug-In . SVG Version: 6.00 Build 0)  -->
<svg version="1.1" id="Capa_1" xmlns="http://www.w3.org/2000/svg" xmlns:xlink="http://www.w3.org/1999/xlink" x="0px" y="0px"
	 viewBox="0 0 76.8 104.4" style="enable-background:new 0 0 76.8 104.4;" xml:space="preserve">
<style type="text/css">
	.st0{fill:none;stroke:#81948B;stroke-width:3.3;stroke-linecap:round;stroke-miterlimit:10;}
</style>
<g>
	<path class="st0" d="M55.1,9v3.5c0,5.6-4.5,10.1-10.1,10.1H30.9c-5.6,0-10.1-4.5-10.1-10.1V9.1"/>
	<path class="st0" d="M67,9.2H47.4c-0.8-4.3-4.5-7.5-9-7.5c-4.5,0-8.2,3.2-9,7.5H9.8c-4.5,0-8.1,3.6-8.1,8.1v77.3
		c0,4.5,3.6,8.1,8.1,8.1H67c4.5,0,8.1-3.6,8.1-8.1V17.3C75.1,12.8,71.5,9.2,67,9.2z"/>
	<polyline class="st0" points="22.5,57.5 32.9,67.6 53.2,48 	"/>
</g>
</svg>
