<?xml version="1.0" encoding="utf-8"?>
<!-- Generator: Adobe Illustrator 24.0.1, SVG Export Plug-In . SVG Version: 6.00 Build 0)  -->
<svg version="1.1" id="Capa_1" xmlns="http://www.w3.org/2000/svg" xmlns:xlink="http://www.w3.org/1999/xlink" x="0px" y="0px"
	 viewBox="0 0 135.3 68" style="enable-background:new 0 0 135.3 68;" xml:space="preserve">
<style type="text/css">
	.st0{fill:none;stroke:#81948B;stroke-width:2.8395;stroke-linecap:round;stroke-miterlimit:10;}
</style>
<g>
	<path class="st0" d="M56.9,19.8c0,0-13.6-16.6-38.3-17.8c0,0-10.8-1.9-14.4,9.6c0,0-6,27.3-0.5,43.4c0,0,5.3,14.6,15.4,11
		c0,0,25.6-3.4,37.6-18h21.1c0,0,17.2,16,36.9,17.7c0,0,15.1,2.7,16.8-8.4c0,0,5.7-24.4-0.5-47.2c0,0-2.2-12.9-17.7-7.2
		c0,0-25.2,6.3-35.2,17.3L56.9,19.8z"/>
	<path class="st0" d="M55,27.4c0,0-9.6-4.8-20.4-5.7"/>
	<path class="st0" d="M55.9,40.4c0,0-13.7,6-22.6,5.5"/>
	<path class="st0" d="M80.4,27.4c0,0,9.6-4.8,20.4-5.7"/>
	<path class="st0" d="M79.6,40.4c0,0,13.7,6,22.6,5.5"/>
	<path class="st0" d="M126.8,48.2c0,0-0.9,5.8-2.1,7.9"/>
	<path class="st0" d="M56.9,19.8c0,0-4.1,10.6-0.2,28.1"/>
	<path class="st0" d="M78.2,20.2c0,0,5.3,12.2-0.3,27.8"/>
</g>
</svg>
